<svg width="87" height="71" viewBox="0 0 87 71" fill="none" xmlns="http://www.w3.org/2000/svg">
<g clip-path="url(#clip0_11_4)">
<path d="M6.39182 62.1744V70.702H2.77461V62.1744H0V58.7405H9.15585V62.1744H6.39182Z" fill="#04529C"/>
<path d="M14.1163 58.737V70.6985H10.4956V58.737H14.1163Z" fill="#04529C"/>
<path d="M16.2986 70.702V62.0774C16.2986 61.0101 16.63 60.1334 17.2893 59.4577C17.9486 58.782 18.8053 58.4425 19.8559 58.4425C21.1039 58.4425 22.0629 59.0073 22.7363 60.1334C23.1452 59.527 23.5859 59.0904 24.0548 58.8305C24.5237 58.5707 25.1054 58.4425 25.7929 58.4425C26.8858 58.4425 27.7249 58.782 28.3066 59.4577C28.8884 60.1334 29.181 61.1106 29.181 62.3857V70.702H25.5602V62.9194C25.5602 62.5347 25.5285 62.2783 25.465 62.1536C25.4016 62.0288 25.2747 61.9665 25.0878 61.9665C24.7317 61.9665 24.5519 62.2645 24.5519 62.8605V70.7055H20.9312V62.9228C20.9312 62.5417 20.8995 62.2887 20.8325 62.1605C20.7655 62.0323 20.6386 61.9665 20.4482 61.9665C20.0921 61.9665 19.9123 62.2853 19.9123 62.9228V70.7055H16.2916L16.2986 70.702Z" fill="#04529C"/>
<path d="M39.9268 58.737V66.4919C39.9268 67.8606 39.5108 68.9521 38.6823 69.7699C37.8538 70.5877 36.7503 70.9965 35.3683 70.9965C33.9863 70.9965 32.9427 70.598 32.2165 69.8045C31.4867 69.011 31.1236 67.8675 31.1236 66.3775V58.737H34.7443V66.3706C34.7443 67.1018 35.0087 67.4656 35.5375 67.4656C36.0664 67.4656 36.3026 67.1018 36.3026 66.3706V58.737H39.9233H39.9268Z" fill="#04529C"/>
<path d="M44.9825 64.2326V66.5543H40.907V64.2326H44.9825Z" fill="#04529C"/>
<path d="M51.5012 62.1744V70.702H47.8805V62.1744H45.1059V58.7405H54.2618V62.1744H51.4977H51.5012Z" fill="#04529C"/>
<path d="M62.0955 63.3906V66.0553H59.7334C59.4126 66.0553 59.1834 66.1003 59.053 66.1939C58.919 66.2875 58.852 66.4469 58.852 66.6686C58.852 66.9181 58.919 67.0844 59.0565 67.1641C59.194 67.2438 59.4725 67.2819 59.8956 67.2819H62.3282V70.6985H59.4831C58.1469 70.6985 57.1245 70.3832 56.4159 69.756C55.7072 69.1288 55.3547 68.221 55.3547 67.0359V62.3476C55.3547 61.2041 55.6896 60.3136 56.3559 59.683C57.0258 59.0523 57.9671 58.737 59.1764 58.737H62.3247V62.1709H60.0154C59.3914 62.1709 59.0776 62.3684 59.0776 62.7669C59.0776 62.9991 59.1517 63.1619 59.2998 63.252C59.4478 63.3421 59.7122 63.3872 60.093 63.3872H62.092L62.0955 63.3906Z" fill="#04529C"/>
<path d="M72.6334 64.8564L76.4234 64.9534C76.173 66.88 75.4961 68.37 74.3856 69.4234C73.275 70.4768 71.8296 71 70.0492 71C68.2688 71 66.7175 70.404 65.4977 69.2085C64.2778 68.0131 63.6644 66.53 63.6644 64.7628C63.6644 62.9956 64.2884 61.4814 65.5329 60.2686C66.7774 59.0523 68.3146 58.4459 70.1373 58.4459C71.96 58.4459 73.4302 59.0419 74.6324 60.2339C75.4644 61.0586 76.0532 62.2056 76.3987 63.6782L72.5206 63.9312C72.0869 62.6214 71.2619 61.9665 70.0527 61.9665C69.2806 61.9665 68.6425 62.2298 68.1383 62.7565C67.6377 63.2832 67.3838 63.952 67.3838 64.7628C67.3838 65.5736 67.6306 66.1939 68.1242 66.7033C68.6178 67.2161 69.2418 67.4691 69.9963 67.4691C70.7507 67.4691 71.3748 67.2438 71.8296 66.7934C72.2844 66.3429 72.5523 65.6984 72.6369 64.8564H72.6334Z" fill="#04529C"/>
<path d="M82.7623 63.0129V66.1696H81.754V70.702H78.1332V58.7405H81.754V63.0164H82.7623V63.0129ZM86.9965 58.737V70.6985H83.3757V58.737H86.9965Z" fill="#04529C"/>
<path d="M68.7623 7.81035C68.7623 7.81035 59.7193 2.79287 50.9054 7.12426C42.0915 11.4556 39.7717 18.0671 39.7717 18.0671C39.7717 18.0671 40.9316 8.49297 55.545 3.7042C55.8271 3.76657 60.4491 4.67789 61.8064 2.56764C62.1343 2.05134 62.5997 0.848951 62.0356 0.287604C61.6231 -0.128209 60.8545 0.0138605 60.6465 0.0589069C57.8331 0.48858 48.5715 2.25578 41.0727 10.3087C32.3011 19.7268 32.294 30.9191 32.3505 33.3378C32.3328 34.8901 32.5373 37.4162 33.9757 39.9492C36.4965 44.3984 41.1255 45.8988 44.3867 46.9556C52.4496 49.5649 59.8497 48.0402 63.7137 46.9002C63.7137 46.9002 75.2564 40.1779 52.9925 20.3471L57.8084 26.3764C56.3418 24.6369 49.4388 17.1904 41.6262 21.0297C41.6262 21.0297 40.699 16.0157 47.8911 10.5443C55.0797 5.07291 65.748 9.4043 67.1406 11.2269C68.5296 13.0531 68.5296 15.1044 71.0821 13.9644C73.6346 12.8244 68.7623 7.81035 68.7623 7.81035ZM43.0188 25.3611C43.7486 25.0458 44.8803 24.6646 46.2658 24.6785C49.0757 24.7027 51.0182 26.3209 54.2089 28.9787C56.3806 30.7875 57.0152 31.7993 57.3995 32.6551C57.9636 33.9199 58.0799 35.0842 58.094 35.8465C57.1774 35.9609 55.605 36.0856 53.6871 35.8465C52.922 35.7495 44.0764 34.5471 42.7085 29.2593C42.5287 28.5629 42.3348 27.2392 43.0188 25.3611Z" fill="#04529C"/>
<path d="M32.8158 21.2584C32.8158 21.2584 16.348 42.0005 40.0044 48.3833C40.0044 48.3833 25.1619 42.0005 32.8158 21.2584Z" fill="#04529C"/>
</g>
<defs>
<clipPath id="clip0_11_4">
<rect width="87" height="71" fill="white"/>
</clipPath>
</defs>
</svg>
